<?xml version="1.0" encoding="utf-8"?>
<!-- Generator: Adobe Illustrator 23.1.1, SVG Export Plug-In . SVG Version: 6.00 Build 0)  -->
<svg version="1.1" id="icon" xmlns="http://www.w3.org/2000/svg" xmlns:xlink="http://www.w3.org/1999/xlink" x="0px" y="0px"
	 viewBox="0 0 1000 1000" style="enable-background:new 0 0 1000 1000;" xml:space="preserve">
<path d="M920,449.1l-120-78V120H640v147.1l-140-91l-420,273v167.7l60-39V940h720V577.9l60,39V449.1z M680,160h80v185.1l-80-52V160z
	 M580,900H420V720c0-44.1,35.9-80,80-80s80,35.9,80,80V900z M820,900H620V720c0-66.2-53.8-120-120-120s-120,53.8-120,120v180H180
	V551.9l320-208l320,208V900z M880,543.1l-380-247l-380,247v-72.3l380-247l380,247V543.1z"/>
</svg>
